<svg xmlns="http://www.w3.org/2000/svg" viewBox="0 0 48 48" fill="none" aria-hidden="true">
  <circle cx="24" cy="24" r="24" fill="#F6F0E7"/>
  <!-- Thoughtful profile: head, hand at chin, shoulders -->
  <path
    fill="#081523"
    d="M33.5 14.2c.8 2.8-.2 5.8-2.4 7.6-1.2 1.1-2.7 1.8-4.2 2.1-.5.1-.9.4-1.1.8l-.8 1.6c-.3.7-.9 1.2-1.6 1.4l-3.1 1.2c-1.1.4-2.2.1-3-.6l-2-1.7c-.5-.4-1.2-.6-1.9-.5l-2.4.4c-1.1.1-2.1-.5-2.4-1.6l-.4-1.9c-.1-.6-.5-1.1-1-1.4l-2-.9c-1.6-.8-2.7-2.4-2.8-4.2-.2-2.7 1-5.3 2.8-6.9 1.7-1.3 4-1.9 6.2-1.5 2.9.5 5.3 2.4 6.5 5.1.5 1.2.8 2.4.9 3.7Z"
  />
  <path
    fill="#081523"
    d="M14.8 22.8c1 1.6 2.5 2.8 4.2 3.5 2.4 1 5.1.8 7.4-.2 1.6-.8 3-2 3.9-3.6.6-1 1.7-1.7 2.9-1.8 2.9-.2 5.6 1.6 6.4 4.4.5 1.8.1 3.9-1 5.5-.8 1.1-1.9 1.9-3.1 2.4-3.3 1.6-7.2 2-10.8 1-2.9-.7-5.4-2.6-6.9-4.9-1-1.6-1.4-3.5-1.3-5.3.1-1.6.7-3.1 1.8-4.2.6-.8 1.5-1.2 2.5-1.1 1 .1 1.9.9 2.2 2 .2.6.2 1.3-.1 1.9Z"
  />
  <path
    fill="#081523"
    d="M12.2 28.8c-.4 3.2.5 6.3 2.5 8.7 1.6 1.8 3.9 3 6.4 3.4 3.7.6 7.6-.2 10.4-2.5 1.8-1.4 3.2-3.4 3.7-5.6.3-1 .9-1.8 2-2 2-.5 4 .6 4.7 2.6.4 1.3.1 2.7-.7 3.9-1.2 1.7-2.9 3.1-4.9 3.9-4.5 2-9.6 2.3-14.2.6-3.3-1.2-6.1-3.6-7.6-6.8-.9-1.7-1.2-3.7-.8-5.6.2-1.1 1.1-2 2.3-2 .9-.1 1.8.6 2.1 1.5.2.6.1 1.2-.3 1.8Z"
  />
  <path
    fill="#C78A2C"
    d="M21.2 34.8c1-.1 1.9.5 2.1 1.5l.2 1c.1.6.6 1.1 1.2 1.1h1.5c.7 0 1.3-.5 1.4-1.2l.2-1.1c.2-.9 1.1-1.5 2-1.3.9.2 1.5 1.1 1.3 2l-.5 2c-.4 1.4-1.5 2.4-2.9 2.6-1.8.3-3.6-.1-4.8-1.4-.8-.8-1.3-1.9-1.2-3.1l.2-1.8c.2-.9 1.1-1.5 2-1.3Z"
  />
</svg>
