<svg xmlns="http://www.w3.org/2000/svg" viewBox="0 0 1600 1200" width="1600" height="1200">
  <defs>
    <linearGradient id="rink" x1="0" y1="0" x2="1" y2="1">
      <stop offset="0%" stop-color="#1c2128"/>
      <stop offset="55%" stop-color="#14171c"/>
      <stop offset="100%" stop-color="#0b0d10"/>
    </linearGradient>
    <linearGradient id="light" x1="0.2" y1="0" x2="0.8" y2="1">
      <stop offset="0%" stop-color="#e8eef2" stop-opacity="0.18"/>
      <stop offset="100%" stop-color="#e8eef2" stop-opacity="0"/>
    </linearGradient>
  </defs>
  <rect width="1600" height="1200" fill="url(#rink)"/>
  <rect width="1600" height="1200" fill="url(#light)"/>
  <line x1="0" y1="900" x2="1600" y2="780" stroke="#e8eef2" stroke-opacity="0.12" stroke-width="3"/>
  <line x1="0" y1="980" x2="1600" y2="860" stroke="#c8102e" stroke-opacity="0.35" stroke-width="4"/>
  <g stroke="#e8eef2" stroke-opacity="0.25" stroke-width="2">
    <line x1="120" y1="320" x2="520" y2="280"/>
    <line x1="180" y1="360" x2="580" y2="310"/>
    <line x1="220" y1="410" x2="640" y2="350"/>
  </g>
  <g fill="#e8eef2" fill-opacity="0.88" transform="translate(620 180) scale(1.15)">
    <ellipse cx="220" cy="70" rx="42" ry="48"/>
    <path d="M140 140 C160 110 280 110 300 145 L340 300 L300 310 L280 220 L270 420 L230 420 L220 280 L200 420 L160 420 L150 240 L120 310 L90 300 Z"/>
    <path d="M300 145 L420 90 L430 110 L330 175 Z" fill="#c8102e"/>
  </g>
  <path d="M980 260 L1320 520 L1300 545 L1120 430 L1180 700 L1145 710 L1060 400 L980 280 Z" fill="#a8b0b8"/>
  <rect x="1288" y="500" width="90" height="18" rx="2" transform="rotate(38 1288 500)" fill="#c8102e"/>
</svg>
