<svg xmlns="http://www.w3.org/2000/svg" viewBox="0 0 1400 900" width="1400" height="900">
  <rect width="1400" height="900" fill="#1a2026"/>
  <rect x="0" y="0" width="80" height="900" fill="#243038"/>
  <rect x="80" y="0" width="18" height="900" fill="#2F6FED"/>
  <g fill="#E9F2F6" opacity="0.85">
    <ellipse cx="420" cy="260" rx="55" ry="62"/>
    <path d="M320 340 C360 290 500 290 540 345 L580 520 L520 535 L500 430 L490 700 L430 700 L420 480 L400 700 L340 700 L330 450 L300 560 L250 540 Z"/>
    <ellipse cx="780" cy="300" rx="50" ry="56"/>
    <path d="M690 370 C725 325 850 325 885 375 L920 530 L870 545 L855 450 L845 700 L790 700 L780 500 L760 700 L710 700 L700 470 L675 560 L630 545 Z"/>
  </g>
  <rect x="200" y="760" width="900" height="10" fill="#8B9096" opacity="0.4"/>
</svg>
